<?xml version="1.0" encoding="UTF-8"?>
<svg width="64" height="64" viewBox="0 0 64 64" fill="none" xmlns="http://www.w3.org/2000/svg">
  <path d="M32 8C19.85 8 10 17.85 10 30C10 42.15 19.85 52 32 52C44.15 52 54 42.15 54 30C54 17.85 44.15 8 32 8ZM32 48C22.05 48 14 39.95 14 30C14 20.05 22.05 12 32 12C41.95 12 50 20.05 50 30C50 39.95 41.95 48 32 48Z" fill="#2C5530"/>
  <path d="M32 16C24.25 16 18 22.25 18 30C18 37.75 24.25 44 32 44C39.75 44 46 37.75 46 30C46 22.25 39.75 16 32 16ZM32 40C26.5 40 22 35.5 22 30C22 24.5 26.5 20 32 20C37.5 20 42 24.5 42 30C42 35.5 37.5 40 32 40Z" fill="#8B9D83"/>
  <path d="M32 24C28.7 24 26 26.7 26 30C26 33.3 28.7 36 32 36C35.3 36 38 33.3 38 30C38 26.7 35.3 24 32 24Z" fill="#D4B59E"/>
</svg> 