<?xml version="1.0" encoding="UTF-8"?>
<svg width="64" height="64" viewBox="0 0 64 64" fill="none" xmlns="http://www.w3.org/2000/svg">
  <path d="M32 4C22 4 14 12 14 22C14 35 32 60 32 60C32 60 50 35 50 22C50 12 42 4 32 4ZM32 56C26 47.5 18 34 18 22C18 14 24 8 32 8C40 8 46 14 46 22C46 34 38 47.5 32 56Z" fill="#2C5530"/>
  <path d="M32 12C26 12 22 16 22 22C22 28 26 32 32 32C38 32 42 28 42 22C42 16 38 12 32 12ZM32 28C28 28 26 26 26 22C26 18 28 16 32 16C36 16 38 18 38 22C38 26 36 28 32 28Z" fill="#8B9D83"/>
  <circle cx="32" cy="22" r="4" fill="#D4B59E"/>
</svg> 