<?xml version="1.0" encoding="UTF-8"?>
<svg width="64" height="64" viewBox="0 0 64 64" fill="none" xmlns="http://www.w3.org/2000/svg">
  <path d="M32 4L8 14V30C8 44.28 18.36 57.56 32 60C45.64 57.56 56 44.28 56 30V14L32 4ZM32 56C20.36 53.84 12 42.72 12 30V16.72L32 8.56L52 16.72V30C52 42.72 43.64 53.84 32 56Z" fill="#2C5530"/>
  <path d="M32 12L16 18.72V30C16 40.72 22.36 50.28 32 52C41.64 50.28 48 40.72 48 30V18.72L32 12ZM32 48C24.36 46.28 20 38.72 20 30V21.44L32 16.28L44 21.44V30C44 38.72 39.64 46.28 32 48Z" fill="#8B9D83"/>
  <path d="M32 20L24 23.44V30C24 36.72 27.36 42.72 32 44C36.64 42.72 40 36.72 40 30V23.44L32 20Z" fill="#D4B59E"/>
</svg> 